<svg width="15" height="12" viewBox="0 0 15 12" fill="none" xmlns="http://www.w3.org/2000/svg">
<path d="M14.8098 1.54702C14.2816 1.77758 13.7187 1.9304 13.1319 2.0046C13.7356 1.64595 14.1963 1.08236 14.413 0.403044C13.8501 0.73696 13.2287 0.972821 12.5664 1.10444C12.032 0.5382 11.2703 0.1875 10.4393 0.1875C8.82711 0.1875 7.52919 1.4896 7.52919 3.08586C7.52919 3.31553 7.54872 3.53638 7.59666 3.74662C5.17571 3.62913 3.03352 2.47456 1.59444 0.715759C1.34321 1.1495 1.19584 1.64595 1.19584 2.1804C1.19584 3.18391 1.71518 4.07347 2.48932 4.58848C2.02146 4.57964 1.56249 4.44449 1.17364 4.23159C1.17364 4.24043 1.17364 4.25191 1.17364 4.2634C1.17364 5.6715 2.18304 6.84109 3.5067 7.11052C3.26967 7.175 3.01133 7.20592 2.74322 7.20592C2.55679 7.20592 2.36858 7.19532 2.19191 7.15645C2.56922 8.30396 3.63987 9.14758 4.91293 9.17496C3.92218 9.94615 2.66421 10.4108 1.30237 10.4108C1.06356 10.4108 0.834513 10.4002 0.605469 10.3711C1.8954 11.1988 3.42414 11.6714 5.07273 11.6714C10.4313 11.6714 13.361 7.25451 13.361 3.42596C13.361 3.29787 13.3565 3.17419 13.3503 3.0514C13.9282 2.64328 14.4138 2.13358 14.8098 1.54702Z" fill="white"/>
</svg>
